<svg xmlns="http://www.w3.org/2000/svg" viewBox="0 0 800 300"><path fill="#f5f5f5" d="M0 0h800v300H0z"/><circle cx="650" cy="150" r="180" fill="#c58b4e" opacity=".15"/><text x="60" y="120" fill="#111" font-family="Arial" font-size="34" font-weight="bold">
    TODO PARA TU
  </text><text x="60" y="170" fill="#c58b4e" font-family="Arial" font-size="46" font-weight="bold">
    BULLDOG
  </text><text x="60" y="210" fill="#555" font-family="Arial" font-size="16">
    Productos cómodos, resistentes y con estilo
  </text><g transform="translate(500 50)"><ellipse cx="120" cy="110" fill="#fff" stroke="#111" stroke-width="4" rx="95" ry="80"/><path fill="#c58b4e" d="M120 40q80 40 40 130-40-20-40-130" opacity=".5"/><path fill="#fff" stroke="#111" stroke-width="4" d="M60 70Q40 20 90 50"/><path fill="#c58b4e" stroke="#111" stroke-width="4" d="M180 70q20-50-30-20"/><ellipse cx="85" cy="105" fill="#111" rx="8" ry="6"/><ellipse cx="155" cy="105" fill="#111" rx="8" ry="6"/><path fill="none" stroke="#111" stroke-width="3" d="M85 85q35-25 70 0"/><path fill="none" stroke="#111" stroke-width="2" d="M95 105q25-15 50 0"/><ellipse cx="120" cy="135" fill="#fff" stroke="#111" stroke-width="4" rx="45" ry="30"/><ellipse cx="120" cy="125" fill="#111" rx="14" ry="10"/><path fill="none" stroke="#111" stroke-width="3" d="M90 155q30 25 60 0"/><circle cx="100" cy="140" r="2" fill="#111"/><circle cx="140" cy="140" r="2" fill="#111"/></g></svg>