<svg xmlns="http://www.w3.org/2000/svg" viewBox="0 0 400 300"><g transform="translate(100 20)"><circle cx="100" cy="100" r="90" fill="#fff" stroke="#111" stroke-width="5"/><path fill="#f4f4f4" stroke="#111" stroke-width="5" d="M40 90q0-30 30-35 30-10 60 0 30 5 30 35 0 60-60 80-60-20-60-80Z"/><path fill="#c58b4e" d="M110 60q50 20 30 90-30-15-30-90" opacity=".6"/><path fill="none" stroke="#111" stroke-linecap="round" stroke-linejoin="round" stroke-width="5" d="M60 65Q45 40 75 55m65 10q15-25-15-10"/><ellipse cx="75" cy="100" fill="#111" rx="6" ry="5"/><ellipse cx="125" cy="100" fill="#111" rx="6" ry="5"/><path fill="none" stroke="#111" stroke-linecap="round" stroke-linejoin="round" stroke-width="5" d="M75 80q25-15 50 0M85 95q15-10 30 0"/><ellipse cx="100" cy="125" fill="#fff" stroke="#111" stroke-width="5" rx="30" ry="22"/><ellipse cx="100" cy="120" fill="#111" rx="12" ry="9"/><path fill="none" stroke="#111" stroke-linecap="round" stroke-linejoin="round" stroke-width="5" d="M80 140q20 20 40 0"/></g><text x="200" y="240" fill="#111" font-family="Arial, sans-serif" font-size="28" font-weight="bold" letter-spacing="2" text-anchor="middle">
    BULLDOG PET SHOP
  </text><text x="200" y="265" fill="#666" font-family="Arial, sans-serif" font-size="12" letter-spacing="3" text-anchor="middle">
    TIENDA DE MASCOTAS
  </text></svg>